<?xml version="1.0" encoding="UTF-8"?>
<!DOCTYPE svg PUBLIC "-//W3C//DTD SVG 1.1//EN" "http://www.w3.org/Graphics/SVG/1.1/DTD/svg11.dtd">
<!-- Creator: CorelDRAW -->
<svg xmlns="http://www.w3.org/2000/svg" xml:space="preserve" width="38.0828mm" height="38.1mm" version="1.1" style="shape-rendering:geometricPrecision; text-rendering:geometricPrecision; image-rendering:optimizeQuality; fill-rule:evenodd; clip-rule:evenodd"
viewBox="0 0 3808.28 3810"
 xmlns:xlink="http://www.w3.org/1999/xlink"
 xmlns:xodm="http://www.corel.com/coreldraw/odm/2003">
 <defs>
  <style type="text/css">
   <![CDATA[
    .fil0 {fill:white;fill-rule:nonzero}
   ]]>
  </style>
 </defs>
 <g id="Camada_x0020_1">
  <metadata id="CorelCorpID_0Corel-Layer"/>
  <g id="_1523669342608">
   <g>
    <path class="fil0" d="M646.74 3223.01c81.66,-0.01 147.87,66.2 147.87,147.85 0,81.64 -66.21,147.85 -147.86,147.85 -81.65,0 -147.86,-66.21 -147.86,-147.85 0,-81.65 66.21,-147.86 147.86,-147.86l-0.01 0.01zm0 -177.43c-179.61,-0.01 -325.28,145.66 -325.28,325.28 0,179.62 145.67,325.28 325.29,325.28 179.62,0 325.29,-145.66 325.29,-325.28 0,-179.62 -145.67,-325.29 -325.29,-325.29l-0.01 0.01zm0 0l0 0 0 0z"/>
   </g>
   <path class="fil0" d="M2117.33 12.13l1089.12 3282.45c383.68,-359.69 601.84,-863.21 601.84,-1389.52 0,-969.12 -728.19,-1784.06 -1691.05,-1892.91l0.09 -0.02zm1163.06 2939.42l-899.28 -2708.47c741.21,212.45 1252.17,890.57 1252.17,1661.75 0,378 -124.11,745.87 -352.88,1046.62l-0.01 0.1z"/>
   <path class="fil0" d="M-0 1904.71c0.02,0.55 0.02,1.24 0.02,1.7 0,385.63 118.31,762.94 338.04,1079.5 87.54,-72.83 197.92,-112.74 311.82,-112.74 0.3,0 0.71,0 1.02,0 30.18,0 60.56,2.88 90.21,8.28l951.87 -2869.32c-963.62,108.14 -1692.5,922.87 -1692.97,1892.54l-0.01 0.04zm614.5 792.23c-74.54,3.98 -148.3,20.63 -217.35,49.06 -143.43,-257.08 -218.96,-547.4 -218.96,-841.93 0,-770.51 510.37,-1448.41 1250.93,-1661.08l-814.62 2453.95z"/>
   <path class="fil0" d="M1892 2268.14c-0.73,-0.01 -1.39,-0.01 -2.05,-0.01 -287.17,0 -570.6,68.93 -825.84,200.19l-158.21 476.69c145.72,89.28 234.65,248.12 234.65,419.12 0,89.22 -24.37,176.89 -70.33,253.33 259.61,126.51 545.36,192.54 834.35,192.54 418.04,0 824.69,-137.64 1156.7,-391.53l-310.21 -933.87c-263.06,-142.03 -557.73,-216.47 -856.79,-216.47 -0.66,0 -1.54,0 -2.2,0l-0.07 0.01zm13.3 1364.44c-1.26,-0.01 -2.94,-0.01 -4.19,-0.01 -205.42,0 -409.78,-37.06 -602.01,-109.09 12.76,-52.12 19.22,-105.7 19.22,-159.37 0,-181.62 -73.79,-355.62 -204.35,-481.77l95.22 -287.14c212.51,-98.42 444.43,-149.65 678.72,-149.65 1.18,0 2.95,0 4.13,0 247.18,0.02 491.5,56.21 713.82,163.77l246.04 739.3c-279.8,184.94 -608.38,283.95 -943.86,283.95 -0.84,0 -1.88,0 -2.72,0l-0.02 0.01z"/>
   <path class="fil0" d="M1892.29 2090.71c0.55,-0.01 1.04,-0.01 1.52,-0.01 268.05,0 533.67,54.53 780.14,159.72l-747.36 -2250.42 -21.29 0 -21.29 0 -743.13 2238.28c237.75,-97.26 493.18,-147.58 750.31,-147.58 0.25,0 0.98,0 1.21,0l-0.11 0.01zm13.01 -1591.84l489.11 1472.97c-164.04,-38.86 -332.59,-58.53 -501.42,-58.53 -159.51,0 -319.02,17.81 -474.56,52.37l486.87 -1466.81z"/>
  </g>
 </g>
</svg>
